<svg width="363" height="272" viewBox="0 0 363 272" fill="none" xmlns="http://www.w3.org/2000/svg">
<g opacity="0.2" filter="url(#filter0_f_814_600)">
<ellipse cx="181.5" cy="136" rx="81.5" ry="36" fill="#FFC267"/>
</g>
<path d="M128.979 136.031V129.487C134.161 129.487 136.751 127.982 136.751 124.973C136.751 122.366 134.883 121.062 131.147 121.062C129.752 121.062 128.506 121.388 127.41 122.04C126.364 122.692 125.841 123.619 125.841 124.823C125.841 125.324 125.916 125.776 126.065 126.177L118.518 128.96C117.97 127.857 117.696 126.603 117.696 125.199C117.696 122.04 118.891 119.432 121.283 117.376C123.724 115.32 127.012 114.292 131.147 114.292C135.73 114.292 139.142 115.195 141.384 117C143.676 118.805 144.822 121.162 144.822 124.071C144.822 126.077 144.323 127.807 143.327 129.261C142.331 130.715 141.035 131.794 139.441 132.496C144.124 134.251 146.466 137.36 146.466 141.823C146.466 145.233 145.121 148.066 142.43 150.323C139.79 152.58 136.153 153.708 131.52 153.708C126.738 153.708 123.026 152.58 120.386 150.323C117.795 148.066 116.5 145.133 116.5 141.522C116.5 139.867 116.799 138.363 117.397 137.009L125.617 139.717C125.368 140.369 125.243 141.046 125.243 141.748C125.243 143.152 125.841 144.28 127.037 145.133C128.282 145.935 129.801 146.336 131.595 146.336C133.239 146.336 134.609 145.885 135.705 144.982C136.801 144.029 137.349 142.801 137.349 141.296C137.349 139.591 136.577 138.288 135.032 137.385C133.538 136.482 131.52 136.031 128.979 136.031Z" fill="#FFC267"/>
<path d="M193.321 168V115.345H202.737V120.686C204.032 118.78 205.825 117.251 208.117 116.097C210.409 114.894 212.9 114.292 215.59 114.292C220.422 114.292 224.457 116.072 227.696 119.633C230.984 123.193 232.628 127.982 232.628 134C232.628 139.867 230.909 144.631 227.471 148.292C224.034 151.903 219.799 153.708 214.768 153.708C209.736 153.708 205.726 151.827 202.737 148.066V168H193.321ZM220.073 126.327C218.081 124.221 215.59 123.168 212.601 123.168C209.612 123.168 207.121 124.221 205.128 126.327C203.135 128.383 202.139 130.941 202.139 134C202.139 137.059 203.135 139.642 205.128 141.748C207.121 143.804 209.612 144.832 212.601 144.832C215.59 144.832 218.081 143.804 220.073 141.748C222.066 139.642 223.062 137.059 223.062 134C223.062 130.941 222.066 128.383 220.073 126.327Z" fill="#FFC267"/>
<path d="M237.636 152.655V115.345H247.052V152.655H237.636ZM242.152 109.929C239.41 109.929 237.188 107.706 237.188 104.965C237.188 102.223 239.41 100 242.152 100H242.535C245.277 100 247.5 102.223 247.5 104.965C247.5 107.706 245.277 109.929 242.535 109.929H242.152Z" fill="#FFC267"/>
<path fill-rule="evenodd" clip-rule="evenodd" d="M169.276 154.165C180.135 154.165 188.938 145.305 188.938 134.374C188.938 123.444 180.135 114.583 169.276 114.583C158.418 114.583 149.615 123.444 149.615 134.374C149.615 145.305 158.418 154.165 169.276 154.165ZM169.276 153.112C169.276 152.748 169.333 144.065 173.415 139.93C177.205 136.089 185.832 134.374 185.832 134.374C185.832 134.374 177.205 132.659 173.415 128.819C169.333 124.683 169.276 116 169.276 115.636C169.275 116 169.218 124.683 165.136 128.819C161.346 132.659 152.719 134.374 152.719 134.374C152.719 134.374 161.346 136.089 165.136 139.93C169.218 144.065 169.275 152.748 169.276 153.112Z" fill="#FFC267"/>
<defs>
<filter id="filter0_f_814_600" x="0" y="0" width="363" height="272" filterUnits="userSpaceOnUse" color-interpolation-filters="sRGB">
<feFlood flood-opacity="0" result="BackgroundImageFix"/>
<feBlend mode="normal" in="SourceGraphic" in2="BackgroundImageFix" result="shape"/>
<feGaussianBlur stdDeviation="50" result="effect1_foregroundBlur_814_600"/>
</filter>
</defs>
</svg>
